# xmcd
#
# Track frame offsets:
#	150
#	19538
#	48777
#	60878
#	80703
#	115069
#	131268
#	149574
#	166634
#	185234
#	200541
#	218996
#	250600
#	275642
#	292807
#	314104
#	325596
#
# Disc length: 4731 seconds
#
# Revision: 1
# Processed by: cddbd v1.5.2PL0 Copyright (c) Steve Scherf et al.
# Submitted via: audiograbber 1.83.01
#
DISCID=f2127911
DTITLE=Various Artist - Little Darla Has A Treat For You, Vol. 27 [CD2]
DYEAR=2009
DGENRE=Indie
TTITLE0=Lowlights - Under The Sun
TTITLE1=Manual - Miraparque
TTITLE2=Momus - Odd Man Out
TTITLE3=Montt Mardie - Sometimes
TTITLE4=Mothboy - Extended Movement
TTITLE5=New Radiant Storm King - Refused
TTITLE6=Photon Band - Everything Was Funny
TTITLE7=The Project Pale - Snowed In (Submerged and Schecter Remix)
TTITLE8=Raoul Sinier - Alternative Rush
TTITLE9=Robin Guthrie - The Flight Of The Painted Lady
TTITLE10=Rumskib - Secrets
TTITLE11=Spherical Objects - Walk Away
TTITLE12=Sweet Trip - Where The Sunrise Dies, So Does The Echo Of Your Voice
TTITLE13=Tiny Magnetic Pets - Girl In A White Dress
TTITLE14=Tujiko Noriko, Lawrence English, John Chantler - Heart Ga Kikeoru (Edi
TTITLE14=t)
TTITLE15=Vlor - Watch Me Bleed (Morning Mix)
TTITLE16=Yagya - A Small Offering
EXTD=
EXTT0=
EXTT1=
EXTT2=
EXTT3=
EXTT4=
EXTT5=
EXTT6=
EXTT7=
EXTT8=
EXTT9=
EXTT10=
EXTT11=
EXTT12=
EXTT13=
EXTT14=
EXTT15=
EXTT16=
PLAYORDER=
